<?xml version="1.0" encoding="utf-8"?>
<svg xmlns="http://www.w3.org/2000/svg" version="1.1" width="800" height="800">
<title>Intersection de segments</title>

<rect width="800" height="800" x="0" y="0" fill="white" />
<circle cx="406" cy="546" r="8"/>
<circle cx="459" cy="568" r="8"/>
<line x1="406" y1="546" x2="459" y2="568" stroke="black" />
<text x="381" y="546">S0</text>
<circle cx="208" cy="505" r="8"/>
<circle cx="282" cy="547" r="8"/>
<line x1="208" y1="505" x2="282" y2="547" stroke="black" />
<text x="183" y="505">S1</text>
<circle cx="113" cy="625" r="8"/>
<circle cx="169" cy="671" r="8"/>
<line x1="113" y1="625" x2="169" y2="671" stroke="black" />
<text x="88" y="625">S2</text>
<circle cx="159" cy="689" r="8"/>
<circle cx="312" cy="709" r="8"/>
<line x1="159" y1="689" x2="312" y2="709" stroke="black" />
<text x="134" y="689">S3</text>
<circle cx="448" cy="562" r="8"/>
<circle cx="520" cy="605" r="8"/>
<line x1="448" y1="562" x2="520" y2="605" stroke="black" />
<text x="423" y="562">S4</text>
<circle cx="528" cy="407" r="8"/>
<circle cx="707" cy="402" r="8"/>
<line x1="528" y1="407" x2="707" y2="402" stroke="black" />
<text x="503" y="407">S5</text>
<circle cx="153" cy="520" r="8"/>
<circle cx="190" cy="485" r="8"/>
<line x1="153" y1="520" x2="190" y2="485" stroke="black" />
<text x="128" y="520">S6</text>
<circle cx="498" cy="234" r="8"/>
<circle cx="624" cy="207" r="8"/>
<line x1="498" y1="234" x2="624" y2="207" stroke="black" />
<text x="473" y="234">S7</text>
<circle cx="210" cy="621" r="8"/>
<circle cx="355" cy="661" r="8"/>
<line x1="210" y1="621" x2="355" y2="661" stroke="black" />
<text x="185" y="621">S8</text>
<circle cx="224" cy="469" r="8"/>
<circle cx="363" cy="461" r="8"/>
<line x1="224" y1="469" x2="363" y2="461" stroke="black" />
<text x="199" y="469">S9</text>

</svg>
