<?xml version="1.0" encoding="utf-8"?>
<svg xmlns="http://www.w3.org/2000/svg" version="1.1" width="800" height="800">
<title>Intersection de segments</title>

<rect width="800" height="800" x="0" y="0" fill="white" />
<circle cx="256" cy="170" r="8"/>
<circle cx="382" cy="133" r="8"/>
<line x1="256" y1="170" x2="382" y2="133" stroke="black" />
<text x="231" y="170">S0</text>
<circle cx="372" cy="475" r="8"/>
<circle cx="483" cy="517" r="8"/>
<line x1="372" y1="475" x2="483" y2="517" stroke="black" />
<text x="347" y="475">S1</text>
<circle cx="472" cy="516" r="8"/>
<circle cx="506" cy="521" r="8"/>
<line x1="472" y1="516" x2="506" y2="521" stroke="black" />
<text x="447" y="516">S2</text>
<circle cx="269" cy="365" r="8"/>
<circle cx="398" cy="375" r="8"/>
<line x1="269" y1="365" x2="398" y2="375" stroke="black" />
<text x="244" y="365">S3</text>
<circle cx="305" cy="683" r="8"/>
<circle cx="363" cy="670" r="8"/>
<line x1="305" y1="683" x2="363" y2="670" stroke="black" />
<text x="280" y="683">S4</text>
<circle cx="189" cy="625" r="8"/>
<circle cx="320" cy="655" r="8"/>
<line x1="189" y1="625" x2="320" y2="655" stroke="black" />
<text x="164" y="625">S5</text>
<circle cx="118" cy="432" r="8"/>
<circle cx="250" cy="478" r="8"/>
<line x1="118" y1="432" x2="250" y2="478" stroke="black" />
<text x="93" y="432">S6</text>
<circle cx="174" cy="185" r="8"/>
<circle cx="354" cy="173" r="8"/>
<line x1="174" y1="185" x2="354" y2="173" stroke="black" />
<text x="149" y="185">S7</text>
<circle cx="515" cy="614" r="8"/>
<circle cx="704" cy="584" r="8"/>
<line x1="515" y1="614" x2="704" y2="584" stroke="black" />
<text x="490" y="614">S8</text>
<circle cx="494" cy="319" r="8"/>
<circle cx="642" cy="323" r="8"/>
<line x1="494" y1="319" x2="642" y2="323" stroke="black" />
<text x="469" y="319">S9</text>

</svg>
