<?xml version="1.0" encoding="utf-8"?>
<svg xmlns="http://www.w3.org/2000/svg" version="1.1" width="800" height="800">
<title>Intersection de segments</title>

<rect width="800" height="800" x="0" y="0" fill="white" />
<circle cx="323" cy="256" r="8"/>
<circle cx="503" cy="234" r="8"/>
<line x1="323" y1="256" x2="503" y2="234" stroke="black" />
<text x="298" y="256">S0</text>
<circle cx="399" cy="591" r="8"/>
<circle cx="524" cy="631" r="8"/>
<line x1="399" y1="591" x2="524" y2="631" stroke="black" />
<text x="374" y="591">S1</text>
<circle cx="549" cy="469" r="8"/>
<circle cx="697" cy="426" r="8"/>
<line x1="549" y1="469" x2="697" y2="426" stroke="black" />
<text x="524" y="469">S2</text>
<circle cx="308" cy="413" r="8"/>
<circle cx="352" cy="451" r="8"/>
<line x1="308" y1="413" x2="352" y2="451" stroke="black" />
<text x="283" y="413">S3</text>
<circle cx="78" cy="107" r="8"/>
<circle cx="183" cy="124" r="8"/>
<line x1="78" y1="107" x2="183" y2="124" stroke="black" />
<text x="53" y="107">S4</text>
<circle cx="92" cy="197" r="8"/>
<circle cx="169" cy="178" r="8"/>
<line x1="92" y1="197" x2="169" y2="178" stroke="black" />
<text x="67" y="197">S5</text>
<circle cx="286" cy="134" r="8"/>
<circle cx="411" cy="134" r="8"/>
<line x1="286" y1="134" x2="411" y2="134" stroke="black" />
<text x="261" y="134">S6</text>
<circle cx="340" cy="387" r="8"/>
<circle cx="463" cy="342" r="8"/>
<line x1="340" y1="387" x2="463" y2="342" stroke="black" />
<text x="315" y="387">S7</text>
<circle cx="227" cy="377" r="8"/>
<circle cx="354" cy="341" r="8"/>
<line x1="227" y1="377" x2="354" y2="341" stroke="black" />
<text x="202" y="377">S8</text>
<circle cx="494" cy="676" r="8"/>
<circle cx="622" cy="703" r="8"/>
<line x1="494" y1="676" x2="622" y2="703" stroke="black" />
<text x="469" y="676">S9</text>

</svg>
