<?xml version="1.0" encoding="utf-8"?>
<svg xmlns="http://www.w3.org/2000/svg" version="1.1" width="800" height="800">
<title>Intersection de segments</title>

<rect width="800" height="800" x="0" y="0" fill="white" />
<circle cx="98" cy="185" r="8"/>
<circle cx="259" cy="226" r="8"/>
<line x1="98" y1="185" x2="259" y2="226" stroke="black" />
<text x="73" y="185">S0</text>
<circle cx="102" cy="583" r="8"/>
<circle cx="124" cy="603" r="8"/>
<line x1="102" y1="583" x2="124" y2="603" stroke="black" />
<text x="77" y="583">S1</text>
<circle cx="329" cy="465" r="8"/>
<circle cx="395" cy="434" r="8"/>
<line x1="329" y1="465" x2="395" y2="434" stroke="black" />
<text x="304" y="465">S2</text>
<circle cx="365" cy="310" r="8"/>
<circle cx="560" cy="311" r="8"/>
<line x1="365" y1="310" x2="560" y2="311" stroke="black" />
<text x="340" y="310">S3</text>
<circle cx="307" cy="125" r="8"/>
<circle cx="422" cy="151" r="8"/>
<line x1="307" y1="125" x2="422" y2="151" stroke="black" />
<text x="282" y="125">S4</text>
<circle cx="520" cy="437" r="8"/>
<circle cx="585" cy="401" r="8"/>
<line x1="520" y1="437" x2="585" y2="401" stroke="black" />
<text x="495" y="437">S5</text>
<circle cx="99" cy="404" r="8"/>
<circle cx="225" cy="451" r="8"/>
<line x1="99" y1="404" x2="225" y2="451" stroke="black" />
<text x="74" y="404">S6</text>
<circle cx="489" cy="525" r="8"/>
<circle cx="620" cy="496" r="8"/>
<line x1="489" y1="525" x2="620" y2="496" stroke="black" />
<text x="464" y="525">S7</text>
<circle cx="153" cy="568" r="8"/>
<circle cx="222" cy="523" r="8"/>
<line x1="153" y1="568" x2="222" y2="523" stroke="black" />
<text x="128" y="568">S8</text>
<circle cx="191" cy="177" r="8"/>
<circle cx="276" cy="147" r="8"/>
<line x1="191" y1="177" x2="276" y2="147" stroke="black" />
<text x="166" y="177">S9</text>

</svg>
