<?xml version="1.0" encoding="utf-8"?>
<svg xmlns="http://www.w3.org/2000/svg" version="1.1" width="800" height="800">
<title>Points dans le plan</title>

<rect width="800" height="800" x="0" y="0" fill="white" />
<circle cx="105" cy="458" r="6"/>
<circle cx="105" cy="458" r="6"/>
<text x="77" y="458">S0</text>
<circle cx="703" cy="409" r="6"/>
<circle cx="703" cy="409" r="6"/>
<text x="675" y="409">S1</text>
<circle cx="592" cy="404" r="6"/>
<circle cx="592" cy="404" r="6"/>
<text x="564" y="404">S2</text>
<circle cx="400" cy="529" r="6"/>
<circle cx="400" cy="529" r="6"/>
<text x="372" y="529">S3</text>
<circle cx="417" cy="640" r="6"/>
<circle cx="417" cy="640" r="6"/>
<text x="389" y="640">S4</text>
<circle cx="299" cy="570" r="6"/>
<circle cx="299" cy="570" r="6"/>
<text x="271" y="570">S5</text>
<circle cx="227" cy="647" r="6"/>
<circle cx="227" cy="647" r="6"/>
<text x="199" y="647">S6</text>
<circle cx="379" cy="145" r="6"/>
<circle cx="379" cy="145" r="6"/>
<text x="351" y="145">S7</text>
<circle cx="152" cy="414" r="6"/>
<circle cx="152" cy="414" r="6"/>
<text x="124" y="414">S8</text>
<circle cx="247" cy="229" r="6"/>
<circle cx="247" cy="229" r="6"/>
<text x="219" y="229">S9</text>
<circle cx="553" cy="440" r="6"/>
<circle cx="553" cy="440" r="6"/>
<text x="525" y="440">S10</text>
<circle cx="288" cy="102" r="6"/>
<circle cx="288" cy="102" r="6"/>
<text x="260" y="102">S11</text>
<circle cx="301" cy="586" r="6"/>
<circle cx="301" cy="586" r="6"/>
<text x="273" y="586">S12</text>
<circle cx="509" cy="363" r="6"/>
<circle cx="509" cy="363" r="6"/>
<text x="481" y="363">S13</text>
<circle cx="463" cy="251" r="6"/>
<circle cx="463" cy="251" r="6"/>
<text x="435" y="251">S14</text>
<circle cx="120" cy="439" r="6"/>
<circle cx="120" cy="439" r="6"/>
<text x="92" y="439">S15</text>
<circle cx="350" cy="735" r="6"/>
<circle cx="350" cy="735" r="6"/>
<text x="322" y="735">S16</text>
<circle cx="786" cy="303" r="6"/>
<circle cx="786" cy="303" r="6"/>
<text x="758" y="303">S17</text>
<circle cx="738" cy="345" r="6"/>
<circle cx="738" cy="345" r="6"/>
<text x="710" y="345">S18</text>
<circle cx="403" cy="516" r="6"/>
<circle cx="403" cy="516" r="6"/>
<text x="375" y="516">S19</text>

<line x1="350" y1="735" x2="703" y2="409" stroke="black" />
<line x1="703" y1="409" x2="786" y2="303" stroke="black" />
<line x1="786" y1="303" x2="288" y2="102" stroke="black" />
<line x1="288" y1="102" x2="105" y2="458" stroke="black" />
<line x1="105" y1="458" x2="227" y2="647" stroke="black" />
<line x1="227" y1="647" x2="350" y2="735" stroke="black" />
</svg>
