<?xml version="1.0" encoding="utf-8"?>
<svg xmlns="http://www.w3.org/2000/svg" version="1.1" width="800" height="800">
<title>Points dans le plan</title>

<rect width="800" height="800" x="0" y="0" fill="white" />
<circle cx="185" cy="233" r="6"/>
<circle cx="185" cy="233" r="6"/>
<text x="157" y="233">S0</text>
<circle cx="465" cy="577" r="6"/>
<circle cx="465" cy="577" r="6"/>
<text x="437" y="577">S1</text>
<circle cx="188" cy="418" r="6"/>
<circle cx="188" cy="418" r="6"/>
<text x="160" y="418">S2</text>
<circle cx="459" cy="715" r="6"/>
<circle cx="459" cy="715" r="6"/>
<text x="431" y="715">S3</text>
<circle cx="568" cy="378" r="6"/>
<circle cx="568" cy="378" r="6"/>
<text x="540" y="378">S4</text>
<circle cx="151" cy="460" r="6"/>
<circle cx="151" cy="460" r="6"/>
<text x="123" y="460">S5</text>
<circle cx="179" cy="555" r="6"/>
<circle cx="179" cy="555" r="6"/>
<text x="151" y="555">S6</text>
<circle cx="292" cy="184" r="6"/>
<circle cx="292" cy="184" r="6"/>
<text x="264" y="184">S7</text>
<circle cx="414" cy="143" r="6"/>
<circle cx="414" cy="143" r="6"/>
<text x="386" y="143">S8</text>
<circle cx="442" cy="298" r="6"/>
<circle cx="442" cy="298" r="6"/>
<text x="414" y="298">S9</text>
<circle cx="289" cy="634" r="6"/>
<circle cx="289" cy="634" r="6"/>
<text x="261" y="634">S10</text>
<circle cx="313" cy="348" r="6"/>
<circle cx="313" cy="348" r="6"/>
<text x="285" y="348">S11</text>
<circle cx="185" cy="263" r="6"/>
<circle cx="185" cy="263" r="6"/>
<text x="157" y="263">S12</text>
<circle cx="298" cy="485" r="6"/>
<circle cx="298" cy="485" r="6"/>
<text x="270" y="485">S13</text>
<circle cx="474" cy="124" r="6"/>
<circle cx="474" cy="124" r="6"/>
<text x="446" y="124">S14</text>
<circle cx="735" cy="402" r="6"/>
<circle cx="735" cy="402" r="6"/>
<text x="707" y="402">S15</text>
<circle cx="633" cy="267" r="6"/>
<circle cx="633" cy="267" r="6"/>
<text x="605" y="267">S16</text>
<circle cx="291" cy="652" r="6"/>
<circle cx="291" cy="652" r="6"/>
<text x="263" y="652">S17</text>
<circle cx="441" cy="167" r="6"/>
<circle cx="441" cy="167" r="6"/>
<text x="413" y="167">S18</text>
<circle cx="252" cy="618" r="6"/>
<circle cx="252" cy="618" r="6"/>
<text x="224" y="618">S19</text>

<line x1="459" y1="715" x2="735" y2="402" stroke="black" />
<line x1="735" y1="402" x2="633" y2="267" stroke="black" />
<line x1="633" y1="267" x2="474" y2="124" stroke="black" />
<line x1="474" y1="124" x2="414" y2="143" stroke="black" />
<line x1="414" y1="143" x2="292" y2="184" stroke="black" />
<line x1="292" y1="184" x2="185" y2="233" stroke="black" />
<line x1="185" y1="233" x2="151" y2="460" stroke="black" />
<line x1="151" y1="460" x2="179" y2="555" stroke="black" />
<line x1="179" y1="555" x2="291" y2="652" stroke="black" />
<line x1="291" y1="652" x2="459" y2="715" stroke="black" />
</svg>
