<?xml version="1.0" encoding="utf-8"?>
<svg xmlns="http://www.w3.org/2000/svg" version="1.1" width="800" height="800">
<title>Intersection de segments</title>

<rect width="800" height="800" x="0" y="0" fill="white" />
<circle cx="301" cy="240" r="8"/>
<circle cx="392" cy="235" r="8"/>
<line x1="301" y1="240" x2="392" y2="235" stroke="black" />
<text x="276" y="240">S0</text>
<circle cx="150" cy="417" r="8"/>
<circle cx="232" cy="398" r="8"/>
<line x1="150" y1="417" x2="232" y2="398" stroke="black" />
<text x="125" y="417">S1</text>
<circle cx="470" cy="226" r="8"/>
<circle cx="509" cy="184" r="8"/>
<line x1="470" y1="226" x2="509" y2="184" stroke="black" />
<text x="445" y="226">S2</text>
<circle cx="278" cy="650" r="8"/>
<circle cx="382" cy="640" r="8"/>
<line x1="278" y1="650" x2="382" y2="640" stroke="black" />
<text x="253" y="650">S3</text>
<circle cx="269" cy="573" r="8"/>
<circle cx="431" cy="553" r="8"/>
<line x1="269" y1="573" x2="431" y2="553" stroke="black" />
<text x="244" y="573">S4</text>
<circle cx="226" cy="515" r="8"/>
<circle cx="368" cy="467" r="8"/>
<line x1="226" y1="515" x2="368" y2="467" stroke="black" />
<text x="201" y="515">S5</text>
<circle cx="95" cy="240" r="8"/>
<circle cx="123" cy="194" r="8"/>
<line x1="95" y1="240" x2="123" y2="194" stroke="black" />
<text x="70" y="240">S6</text>
<circle cx="383" cy="531" r="8"/>
<circle cx="423" cy="516" r="8"/>
<line x1="383" y1="531" x2="423" y2="516" stroke="black" />
<text x="358" y="531">S7</text>
<circle cx="99" cy="497" r="8"/>
<circle cx="131" cy="497" r="8"/>
<line x1="99" y1="497" x2="131" y2="497" stroke="black" />
<text x="74" y="497">S8</text>
<circle cx="76" cy="145" r="8"/>
<circle cx="227" cy="96" r="8"/>
<line x1="76" y1="145" x2="227" y2="96" stroke="black" />
<text x="51" y="145">S9</text>

</svg>
