<?xml version="1.0" encoding="utf-8"?>
<svg xmlns="http://www.w3.org/2000/svg" version="1.1" width="800" height="800">
<title>Points dans le plan</title>

<rect width="800" height="800" x="0" y="0" fill="white" />
<circle cx="559" cy="525" r="6"/>
<circle cx="559" cy="525" r="6"/>
<text x="531" y="525">S0</text>
<circle cx="690" cy="311" r="6"/>
<circle cx="690" cy="311" r="6"/>
<text x="662" y="311">S1</text>
<circle cx="262" cy="653" r="6"/>
<circle cx="262" cy="653" r="6"/>
<text x="234" y="653">S2</text>
<circle cx="410" cy="218" r="6"/>
<circle cx="410" cy="218" r="6"/>
<text x="382" y="218">S3</text>
<circle cx="171" cy="464" r="6"/>
<circle cx="171" cy="464" r="6"/>
<text x="143" y="464">S4</text>
<circle cx="490" cy="205" r="6"/>
<circle cx="490" cy="205" r="6"/>
<text x="462" y="205">S5</text>
<circle cx="707" cy="610" r="6"/>
<circle cx="707" cy="610" r="6"/>
<text x="679" y="610">S6</text>
<circle cx="443" cy="542" r="6"/>
<circle cx="443" cy="542" r="6"/>
<text x="415" y="542">S7</text>
<circle cx="617" cy="556" r="6"/>
<circle cx="617" cy="556" r="6"/>
<text x="589" y="556">S8</text>
<circle cx="569" cy="107" r="6"/>
<circle cx="569" cy="107" r="6"/>
<text x="541" y="107">S9</text>
<circle cx="368" cy="517" r="6"/>
<circle cx="368" cy="517" r="6"/>
<text x="340" y="517">S10</text>
<circle cx="442" cy="246" r="6"/>
<circle cx="442" cy="246" r="6"/>
<text x="414" y="246">S11</text>
<circle cx="728" cy="609" r="6"/>
<circle cx="728" cy="609" r="6"/>
<text x="700" y="609">S12</text>
<circle cx="130" cy="316" r="6"/>
<circle cx="130" cy="316" r="6"/>
<text x="102" y="316">S13</text>
<circle cx="379" cy="122" r="6"/>
<circle cx="379" cy="122" r="6"/>
<text x="351" y="122">S14</text>
<circle cx="234" cy="613" r="6"/>
<circle cx="234" cy="613" r="6"/>
<text x="206" y="613">S15</text>
<circle cx="436" cy="339" r="6"/>
<circle cx="436" cy="339" r="6"/>
<text x="408" y="339">S16</text>
<circle cx="591" cy="295" r="6"/>
<circle cx="591" cy="295" r="6"/>
<text x="563" y="295">S17</text>
<circle cx="307" cy="654" r="6"/>
<circle cx="307" cy="654" r="6"/>
<text x="279" y="654">S18</text>
<circle cx="384" cy="471" r="6"/>
<circle cx="384" cy="471" r="6"/>
<text x="356" y="471">S19</text>

<line x1="307" y1="654" x2="728" y2="609" stroke="black" />
<line x1="728" y1="609" x2="690" y2="311" stroke="black" />
<line x1="690" y1="311" x2="569" y2="107" stroke="black" />
<line x1="569" y1="107" x2="379" y2="122" stroke="black" />
<line x1="379" y1="122" x2="130" y2="316" stroke="black" />
<line x1="130" y1="316" x2="171" y2="464" stroke="black" />
<line x1="171" y1="464" x2="234" y2="613" stroke="black" />
<line x1="234" y1="613" x2="262" y2="653" stroke="black" />
<line x1="262" y1="653" x2="307" y2="654" stroke="black" />
</svg>
