<?xml version="1.0" encoding="utf-8"?>
<svg xmlns="http://www.w3.org/2000/svg" version="1.1" width="800" height="800">
<title>Points dans le plan</title>

<rect width="800" height="800" x="0" y="0" fill="white" />
<circle cx="663" cy="313" r="6"/>
<circle cx="663" cy="313" r="6"/>
<text x="635" y="313">S0</text>
<circle cx="752" cy="409" r="6"/>
<circle cx="752" cy="409" r="6"/>
<text x="724" y="409">S1</text>
<circle cx="216" cy="239" r="6"/>
<circle cx="216" cy="239" r="6"/>
<text x="188" y="239">S2</text>
<circle cx="436" cy="670" r="6"/>
<circle cx="436" cy="670" r="6"/>
<text x="408" y="670">S3</text>
<circle cx="587" cy="667" r="6"/>
<circle cx="587" cy="667" r="6"/>
<text x="559" y="667">S4</text>
<circle cx="663" cy="422" r="6"/>
<circle cx="663" cy="422" r="6"/>
<text x="635" y="422">S5</text>
<circle cx="385" cy="273" r="6"/>
<circle cx="385" cy="273" r="6"/>
<text x="357" y="273">S6</text>
<circle cx="717" cy="175" r="6"/>
<circle cx="717" cy="175" r="6"/>
<text x="689" y="175">S7</text>
<circle cx="538" cy="207" r="6"/>
<circle cx="538" cy="207" r="6"/>
<text x="510" y="207">S8</text>
<circle cx="599" cy="498" r="6"/>
<circle cx="599" cy="498" r="6"/>
<text x="571" y="498">S9</text>
<circle cx="330" cy="349" r="6"/>
<circle cx="330" cy="349" r="6"/>
<text x="302" y="349">S10</text>
<circle cx="615" cy="617" r="6"/>
<circle cx="615" cy="617" r="6"/>
<text x="587" y="617">S11</text>
<circle cx="531" cy="498" r="6"/>
<circle cx="531" cy="498" r="6"/>
<text x="503" y="498">S12</text>
<circle cx="283" cy="622" r="6"/>
<circle cx="283" cy="622" r="6"/>
<text x="255" y="622">S13</text>
<circle cx="647" cy="242" r="6"/>
<circle cx="647" cy="242" r="6"/>
<text x="619" y="242">S14</text>
<circle cx="574" cy="315" r="6"/>
<circle cx="574" cy="315" r="6"/>
<text x="546" y="315">S15</text>
<circle cx="360" cy="607" r="6"/>
<circle cx="360" cy="607" r="6"/>
<text x="332" y="607">S16</text>
<circle cx="664" cy="656" r="6"/>
<circle cx="664" cy="656" r="6"/>
<text x="636" y="656">S17</text>
<circle cx="171" cy="411" r="6"/>
<circle cx="171" cy="411" r="6"/>
<text x="143" y="411">S18</text>
<circle cx="293" cy="470" r="6"/>
<circle cx="293" cy="470" r="6"/>
<text x="265" y="470">S19</text>

<line x1="436" y1="670" x2="283" y2="622" stroke="black" />
<line x1="283" y1="622" x2="171" y2="411" stroke="black" />
<line x1="171" y1="411" x2="216" y2="239" stroke="black" />
<line x1="216" y1="239" x2="717" y2="175" stroke="black" />
<line x1="717" y1="175" x2="752" y2="409" stroke="black" />
<line x1="752" y1="409" x2="664" y2="656" stroke="black" />
<line x1="664" y1="656" x2="587" y2="667" stroke="black" />
<line x1="587" y1="667" x2="436" y2="670" stroke="black" />
</svg>
